STARTFONT 2.1
FONT -Adobe-ITC Avant Garde Gothic-Book-O-Normal--33-240-100-100-P-184-ISO8859-1
SIZE 24 100 100
FONTBOUNDINGBOX 46 34 -4 -7

STARTPROPERTIES 26
_DEC_DEVICE_FONTNAMES "PS=AvantGarde-BookOblique"
FONTNAME_REGISTRY ""
FAMILY_NAME "ITC Avant Garde Gothic"
FOUNDRY "Adobe"
WEIGHT_NAME "Book"
SLANT "O"
SETWIDTH_NAME "Normal"
ADD_STYLE_NAME ""
PIXEL_SIZE 33
POINT_SIZE 240
RESOLUTION_X 100
RESOLUTION_Y 100
SPACING "P"
AVERAGE_WIDTH 184
CHARSET_REGISTRY "ISO8859"
CHARSET_ENCODING "1"
CHARSET_COLLECTIONS "ASCII ISO8859-1 ADOBE-STANDARD"
FULL_NAME "ITC Avant Garde Gothic Book Oblique"
COPYRIGHT "Copyright (c) 1991 Adobe Systems, Inc."
CAP_HEIGHT 25
X_HEIGHT 19
WEIGHT 10
QUAD_WIDTH 22
DEFAULT_CHAR 0
FONT_DESCENT 7
FONT_ASCENT 27
ENDPROPERTIES

CHARS 190

STARTCHAR space
ENCODING 32
SWIDTH 277 0
DWIDTH 9 0
BBX 1 1 0 0
BITMAP
00
ENDCHAR

STARTCHAR exclam
ENCODING 33
SWIDTH 295 0
DWIDTH 10 0
BBX 7 25 4 0
BITMAP
0E
0E
0C
0C
1C
1C
1C
1C
18
18
38
38
38
30
30
70
70
70
00
00
00
E0
E0
E0
C0
ENDCHAR

STARTCHAR quotedbl
ENCODING 34
SWIDTH 309 0
DWIDTH 10 0
BBX 7 8 5 17
BITMAP
22
66
66
66
66
64
CC
CC
ENDCHAR

STARTCHAR numbersign
ENCODING 35
SWIDTH 554 0
DWIDTH 18 0
BBX 19 24 2 0
BITMAP
0008C0
001880
001180
003100
002300
006200
004600
00C400
1FFFE0
1FFFC0
019800
031000
033000
063000
FFFF00
FFFF00
0CC000
08C000
198000
118000
310000
230000
620000
460000
ENDCHAR

STARTCHAR dollar
ENCODING 36
SWIDTH 554 0
DWIDTH 18 0
BBX 16 29 3 -2
BITMAP
0030
0030
0070
01FC
03FE
078F
0E07
0C03
1C03
1C00
1C00
1C00
0F00
07E0
03F8
007C
001C
000E
000E
E00E
E00C
E01C
7038
78F8
3FE0
1FC0
0600
0600
0600
ENDCHAR

STARTCHAR percent
ENCODING 37
SWIDTH 775 0
DWIDTH 25 0
BBX 22 25 4 0
BITMAP
0FC030
1FE070
38F0E0
7070C0
6071C0
E07180
E07300
E0E700
71C600
7FCE00
3F1C00
001800
003800
007000
0061F0
00E7F8
00CF3C
019C1C
039C0C
03180C
07181C
0E1C1C
0C1E78
1C0FF0
1807C0
ENDCHAR

STARTCHAR ampersand
ENCODING 38
SWIDTH 757 0
DWIDTH 25 0
BBX 22 25 3 0
BITMAP
007E00
00FF00
01C700
038380
030380
070380
070380
070700
039E00
03FC1C
03F838
07E038
1F7070
3C78E0
783CC0
701FC0
E00F80
E00700
E00780
E00FC0
E01DE0
7038F0
78F078
3FE038
1FC010
ENDCHAR

STARTCHAR quoteright
ENCODING 39
SWIDTH 351 0
DWIDTH 12 0
BBX 5 6 7 19
BITMAP
38
38
70
70
E0
E0
ENDCHAR

STARTCHAR parenleft
ENCODING 40
SWIDTH 369 0
DWIDTH 12 0
BBX 11 29 4 -4
BITMAP
0020
00E0
01E0
0380
0700
0E00
1C00
1800
3800
7000
7000
6000
E000
E000
C000
C000
C000
C000
C000
C000
E000
E000
E000
7000
7000
3800
1C00
0E00
0400
ENDCHAR

STARTCHAR parenright
ENCODING 41
SWIDTH 369 0
DWIDTH 12 0
BBX 12 29 0 -4
BITMAP
0600
0700
0380
01C0
00E0
00E0
0070
0070
0070
0030
0030
0030
0030
0030
0030
0070
0070
0060
00E0
00E0
01C0
0180
0380
0700
0E00
3C00
7800
F000
C000
ENDCHAR

STARTCHAR asterisk
ENCODING 42
SWIDTH 425 0
DWIDTH 14 0
BBX 10 9 6 16
BITMAP
1980
1980
1B00
0E00
FFC0
FFC0
1E00
3700
2300
ENDCHAR

STARTCHAR plus
ENCODING 43
SWIDTH 606 0
DWIDTH 20 0
BBX 17 17 4 2
BITMAP
006000
00E000
00E000
00E000
00E000
00C000
01C000
FFFF80
FFFF80
FFFF80
018000
018000
038000
038000
038000
030000
030000
ENDCHAR

STARTCHAR comma
ENCODING 44
SWIDTH 277 0
DWIDTH 9 0
BBX 6 6 3 -2
BITMAP
1C
38
38
70
60
E0
ENDCHAR

STARTCHAR minus
ENCODING 45
SWIDTH 606 0
DWIDTH 20 0
BBX 17 3 4 9
BITMAP
FFFF80
FFFF80
FFFF80
ENDCHAR

STARTCHAR period
ENCODING 46
SWIDTH 277 0
DWIDTH 9 0
BBX 3 4 4 0
BITMAP
E0
E0
E0
E0
ENDCHAR

STARTCHAR slash
ENCODING 47
SWIDTH 437 0
DWIDTH 15 0
BBX 16 29 1 -4
BITMAP
0003
0003
0006
000E
000C
001C
0018
0038
0030
0070
0060
00E0
00C0
01C0
0180
0380
0300
0700
0600
0E00
0C00
1C00
1800
3000
7000
6000
E000
C000
C000
ENDCHAR

STARTCHAR zero
ENCODING 48
SWIDTH 554 0
DWIDTH 18 0
BBX 18 25 2 0
BITMAP
00FE00
03FF00
07CF80
0F03C0
1C01C0
1C00C0
3800C0
3800C0
3000C0
3000C0
7001C0
7001C0
7001C0
600180
600180
E00380
E00380
E00380
E00300
E00700
E00E00
701E00
7CFC00
3FF800
1FE000
ENDCHAR

STARTCHAR one
ENCODING 49
SWIDTH 554 0
DWIDTH 18 0
BBX 7 25 10 0
BITMAP
FE
FE
0C
0C
1C
1C
1C
1C
18
18
38
38
38
30
30
70
70
70
70
60
60
E0
E0
E0
C0
ENDCHAR

STARTCHAR two
ENCODING 50
SWIDTH 554 0
DWIDTH 18 0
BBX 19 25 2 0
BITMAP
007F00
01FF80
03E7C0
0701C0
0E01C0
0C00C0
1C00E0
1C00E0
0000C0
0001C0
000380
000780
000F00
001E00
003C00
007000
00E000
03C000
078000
0F0000
1C0000
780000
F00000
FFFE00
FFFE00
ENDCHAR

STARTCHAR three
ENCODING 51
SWIDTH 554 0
DWIDTH 18 0
BBX 17 25 2 0
BITMAP
007E00
01FF00
03CF80
070380
070380
0E0180
000380
000380
000700
001E00
00FC00
00FE00
001F00
000700
000380
000380
000380
E00380
E00300
E00700
700E00
701E00
7C7C00
3FF000
0FE000
ENDCHAR

STARTCHAR four
ENCODING 52
SWIDTH 554 0
DWIDTH 18 0
BBX 19 25 1 0
BITMAP
0001E0
0003E0
0007C0
0007C0
000FC0
001DC0
0039C0
0071C0
00E180
01E180
01C380
038380
070380
0E0300
1C0300
380700
780700
700700
FFFFC0
FFFFC0
000E00
000E00
000E00
000E00
000C00
ENDCHAR

STARTCHAR five
ENCODING 53
SWIDTH 554 0
DWIDTH 18 0
BBX 18 25 2 0
BITMAP
03FFC0
03FFC0
030000
070000
070000
060000
0E0000
0C0000
1DF800
1FFE00
1F9F00
3C0700
180380
000380
000380
000380
000380
E00380
E00300
E00700
E00E00
701C00
7CFC00
3FF000
0FC000
ENDCHAR

STARTCHAR six
ENCODING 54
SWIDTH 554 0
DWIDTH 18 0
BBX 17 25 2 0
BITMAP
000C00
001C00
003800
007000
00E000
01C000
01C000
038000
07FC00
0FFE00
1F9F00
1C0700
380380
700380
700380
600380
E00380
E00380
E00300
E00700
700E00
701C00
7CF800
3FF000
0FC000
ENDCHAR

STARTCHAR seven
ENCODING 55
SWIDTH 554 0
DWIDTH 18 0
BBX 17 25 4 0
BITMAP
3FFF80
3FFF80
000380
000700
000700
000E00
001C00
001C00
003800
007000
007000
00E000
01C000
01C000
038000
070000
070000
0E0000
1C0000
1C0000
380000
700000
700000
E00000
C00000
ENDCHAR

STARTCHAR eight
ENCODING 56
SWIDTH 554 0
DWIDTH 18 0
BBX 16 25 3 0
BITMAP
00FC
03FE
078F
0F07
0E03
0C03
1C03
1C07
0E0F
0F1E
07F8
0FFC
1F3E
380E
7007
6007
E007
E007
E006
E00E
E01E
703C
7CF8
3FF0
1FC0
ENDCHAR

STARTCHAR nine
ENCODING 57
SWIDTH 554 0
DWIDTH 18 0
BBX 16 25 4 0
BITMAP
03F8
07FC
1F3E
3C0F
3807
7007
6003
E003
C003
C007
C007
E00E
E00E
F03C
7CF8
3FF8
1FF0
00E0
01C0
0380
0700
0700
0E00
1C00
3800
ENDCHAR

STARTCHAR colon
ENCODING 58
SWIDTH 277 0
DWIDTH 9 0
BBX 5 17 4 0
BITMAP
38
38
38
38
00
00
00
00
00
00
00
00
00
E0
E0
E0
E0
ENDCHAR

STARTCHAR semicolon
ENCODING 59
SWIDTH 277 0
DWIDTH 9 0
BBX 8 19 2 -2
BITMAP
07
07
07
07
00
00
00
00
00
00
00
00
00
1C
38
38
70
60
E0
ENDCHAR

STARTCHAR less
ENCODING 60
SWIDTH 606 0
DWIDTH 20 0
BBX 18 18 4 1
BITMAP
000040
0003C0
000FC0
003E00
01F800
07E000
1F8000
7E0000
F00000
F00000
FC0000
3F0000
0FC000
03F000
00F800
003E00
000E00
000600
ENDCHAR

STARTCHAR equal
ENCODING 61
SWIDTH 606 0
DWIDTH 20 0
BBX 18 8 3 6
BITMAP
3FFFC0
7FFFC0
000000
000000
000000
000000
FFFF80
FFFF80
ENDCHAR

STARTCHAR greater
ENCODING 62
SWIDTH 606 0
DWIDTH 20 0
BBX 19 18 1 1
BITMAP
180000
1E0000
1F8000
07E000
01F800
007E00
001F80
0007E0
0001E0
0003E0
000FC0
003F00
00FC00
07E000
1F8000
7E0000
700000
C00000
ENDCHAR

STARTCHAR question
ENCODING 63
SWIDTH 591 0
DWIDTH 19 0
BBX 16 25 5 0
BITMAP
03F8
0FFC
1F3E
3C0E
7007
7007
E007
E007
0006
000E
001C
0038
0070
00E0
01C0
0380
0700
0700
0700
0000
0000
0E00
0E00
0E00
0E00
ENDCHAR

STARTCHAR at
ENCODING 64
SWIDTH 867 0
DWIDTH 29 0
BBX 26 25 4 0
BITMAP
0007C000
003FF800
00F01E00
03800700
07000380
0C07C180
181FF8C0
3878F8C0
30F070C0
60E070C0
61C0E0C0
6380E180
C380C180
C701C180
C7038300
C7038600
C7070E00
679F1C00
63FFF000
71E3C600
38001C00
1C003800
0F01E000
07FF8000
00FC0000
ENDCHAR

STARTCHAR A
ENCODING 65
SWIDTH 740 0
DWIDTH 24 0
BBX 23 25 1 0
BITMAP
0003C0
0003C0
0007C0
000EC0
000EC0
001CE0
001CE0
0038E0
007060
007070
00E070
00E070
01C070
038030
038038
07FFF8
0FFFF8
0E0038
1C0018
1C001C
38001C
70001C
70000C
E0000E
C0000E
ENDCHAR

STARTCHAR B
ENCODING 66
SWIDTH 574 0
DWIDTH 19 0
BBX 17 25 3 0
BITMAP
0FFC00
0FFF00
0C0F80
0C0380
1C0180
1C0180
1C0180
1C0380
180380
180700
383E00
3FFC00
3FFE00
301F00
300700
700380
700380
700380
700300
600700
600700
E00E00
E07C00
FFF800
FFE000
ENDCHAR

STARTCHAR C
ENCODING 67
SWIDTH 813 0
DWIDTH 27 0
BBX 25 25 4 0
BITMAP
001FE000
00FFF800
01F87E00
07C01F00
0F000700
1E000380
1C000380
38000000
70000000
70000000
60000000
E0000000
E0000000
E0000000
C0000000
E0000000
E0000000
E0000000
F0000C00
70001C00
78003800
3E00F000
1F87E000
0FFF8000
03FE0000
ENDCHAR

STARTCHAR D
ENCODING 68
SWIDTH 744 0
DWIDTH 25 0
BBX 23 25 3 0
BITMAP
0FFF00
0FFFC0
0C03F0
0C00F8
1C0038
1C001C
1C001C
1C000C
18000E
18000E
38000E
38000E
38000E
30000C
30001C
70001C
700038
700038
600070
6000E0
6001C0
E00780
E03F00
FFFE00
FFF000
ENDCHAR

STARTCHAR E
ENCODING 69
SWIDTH 536 0
DWIDTH 18 0
BBX 18 25 3 0
BITMAP
0FFFC0
0FFFC0
0C0000
0C0000
1C0000
1C0000
1C0000
1C0000
180000
180000
380000
380000
3FFE00
3FFE00
300000
700000
700000
700000
700000
600000
600000
E00000
E00000
FFF800
FFF800
ENDCHAR

STARTCHAR F
ENCODING 70
SWIDTH 485 0
DWIDTH 16 0
BBX 17 25 3 0
BITMAP
0FFF80
0FFF80
0C0000
0C0000
1C0000
1C0000
1C0000
1C0000
180000
180000
380000
380000
3FFC00
3FFC00
300000
700000
700000
700000
700000
600000
600000
E00000
E00000
E00000
C00000
ENDCHAR

STARTCHAR G
ENCODING 71
SWIDTH 872 0
DWIDTH 29 0
BBX 25 25 4 0
BITMAP
001FE000
00FFF800
01FCFE00
03C01F00
0F000700
0E000780
1C000380
38000000
30000000
70000000
60000000
E0000000
E0000000
C0000000
C07FFF80
C07FFF80
E0000380
E0000700
E0000E00
70001E00
78003C00
3C00F000
1F87E000
0FFFC000
03FE0000
ENDCHAR

STARTCHAR H
ENCODING 72
SWIDTH 683 0
DWIDTH 23 0
BBX 22 25 3 0
BITMAP
0E001C
0E001C
0C0018
0C0018
1C0018
1C0038
1C0038
1C0038
180030
180030
380070
3FFFF0
3FFFF0
300060
300060
7000E0
7000E0
7000E0
6000E0
6000C0
6000C0
E001C0
E001C0
E001C0
C00180
ENDCHAR

STARTCHAR I
ENCODING 73
SWIDTH 226 0
DWIDTH 7 0
BBX 7 25 3 0
BITMAP
0E
0E
0C
0C
1C
1C
1C
1C
18
18
38
38
38
30
30
70
70
70
70
60
60
E0
E0
E0
C0
ENDCHAR

STARTCHAR J
ENCODING 74
SWIDTH 482 0
DWIDTH 16 0
BBX 17 25 1 0
BITMAP
000380
000380
000300
000300
000700
000700
000700
000700
000600
000600
000E00
000E00
000E00
000C00
000C00
001C00
001C00
001C00
001800
E03800
E03800
E07000
79F000
7FE000
1F8000
ENDCHAR

STARTCHAR K
ENCODING 75
SWIDTH 591 0
DWIDTH 20 0
BBX 21 25 3 0
BITMAP
0E0078
0E0070
0C00E0
0C01C0
1C0380
1C0700
1C0E00
1C1C00
183800
187000
38E000
39C000
3BC000
37C000
3FE000
7CE000
787000
707000
703800
603C00
601C00
E01E00
E00E00
E00700
C00700
ENDCHAR

STARTCHAR L
ENCODING 76
SWIDTH 462 0
DWIDTH 15 0
BBX 12 25 3 0
BITMAP
0E00
0E00
0C00
0C00
1C00
1C00
1C00
1C00
1800
1800
3800
3800
3800
3000
3000
7000
7000
7000
6000
6000
6000
E000
E000
FFF0
FFF0
ENDCHAR

STARTCHAR M
ENCODING 77
SWIDTH 919 0
DWIDTH 30 0
BBX 30 25 3 0
BITMAP
0F00007C
0F80007C
0F8000F8
0F8000D8
1D8001F8
1D8003B8
1DC003B8
19C00738
19C00630
18C00E30
38C01C70
38E01C70
38E03870
30E07060
30607060
7070E0E0
7070C0E0
7071C0E0
603380E0
603380C0
603F01C0
E03E01C0
E03E01C0
E01C01C0
C01C0180
ENDCHAR

STARTCHAR N
ENCODING 78
SWIDTH 740 0
DWIDTH 24 0
BBX 24 25 3 0
BITMAP
0F0007
0F8007
0F8006
0DC006
1DC00E
1DC00E
1CE00E
1CE00E
18700C
18700C
38381C
38381C
381C1C
301C18
300E18
700E38
700738
700738
7003B8
6003B0
6003B0
E001F0
E001F0
E000F0
C000E0
ENDCHAR

STARTCHAR O
ENCODING 79
SWIDTH 869 0
DWIDTH 29 0
BBX 26 25 4 0
BITMAP
001FE000
00FFF800
01F87C00
07C01E00
0F000700
1E000780
1C000380
380001C0
700001C0
700001C0
600001C0
E00001C0
E00001C0
C0000180
C0000380
E0000380
E0000700
E0000700
E0000E00
70001C00
78003800
3C00F000
1F87E000
0FFF8000
03FE0000
ENDCHAR

STARTCHAR P
ENCODING 80
SWIDTH 592 0
DWIDTH 20 0
BBX 20 25 3 0
BITMAP
0FFF00
0FFFC0
0C07E0
0C00E0
1C0060
1C0070
1C0070
1C0070
1800E0
1800E0
3801C0
3803C0
380F80
3FFF00
3FFC00
700000
700000
700000
700000
600000
600000
E00000
E00000
E00000
C00000
ENDCHAR

STARTCHAR Q
ENCODING 81
SWIDTH 871 0
DWIDTH 29 0
BBX 27 25 4 0
BITMAP
001FF000
007FFC00
01F87E00
07C00F00
0F000780
1E0003C0
1C0001C0
380001C0
700000E0
700000E0
600000E0
E00000E0
E00000E0
E00000C0
C00001C0
DFF001C0
FFFE0380
F83F0380
F007C700
7001EE00
7800FC00
3E007800
1F83FC00
0FFFDF00
01FF0F00
ENDCHAR

STARTCHAR R
ENCODING 82
SWIDTH 607 0
DWIDTH 20 0
BBX 19 25 3 0
BITMAP
0FFF00
0FFF80
0C07C0
0C01E0
1C00E0
1C0060
1C0060
1C0060
180060
1800E0
3800E0
3801C0
380380
300F80
31FE00
71F800
70E000
707000
607000
603800
603800
E01C00
E01C00
E00E00
C00E00
ENDCHAR

STARTCHAR S
ENCODING 83
SWIDTH 498 0
DWIDTH 16 0
BBX 17 25 2 0
BITMAP
00FC00
03FF00
07CF00
0F0380
0E0380
1C0380
1C0380
1C0000
1C0000
1E0000
0F8000
07F000
01FC00
003E00
000E00
000F00
000700
000700
E00600
E00E00
E00E00
701C00
7CF800
3FF000
1FC000
ENDCHAR

STARTCHAR T
ENCODING 84
SWIDTH 426 0
DWIDTH 14 0
BBX 15 25 4 0
BITMAP
FFFE
FFFE
0380
0300
0700
0700
0700
0700
0600
0600
0E00
0E00
0E00
0E00
0C00
1C00
1C00
1C00
1C00
1800
3800
3800
3800
3800
3000
ENDCHAR

STARTCHAR U
ENCODING 85
SWIDTH 655 0
DWIDTH 22 0
BBX 20 25 4 0
BITMAP
1C0070
1C0070
180060
180060
380060
3800E0
3800E0
3800E0
3000C0
3000C0
7001C0
7001C0
7001C0
600180
600180
600380
E00380
E00300
E00700
E00700
E00E00
701C00
7EFC00
3FF000
0FE000
ENDCHAR

STARTCHAR V
ENCODING 86
SWIDTH 702 0
DWIDTH 23 0
BBX 22 25 5 0
BITMAP
E0001C
E0001C
E00038
600038
700070
700060
7000E0
3000C0
3801C0
380380
380380
380700
180600
1C0E00
1C0C00
1C1C00
0C1800
0E3800
0E7000
0E6000
06E000
07C000
07C000
078000
038000
ENDCHAR

STARTCHAR W
ENCODING 87
SWIDTH 960 0
DWIDTH 32 0
BBX 31 25 5 0
BITMAP
E0038006
E003800E
E007800C
E007801C
E00F8018
E00DC038
E01DC038
E019C070
6039C070
6039C060
6071C0E0
6071C0C0
60E0C1C0
60E0C180
71C0C380
71C0E300
7380E700
7380E700
7300E600
7700EE00
7600EC00
3E00FC00
3E00F800
3C007800
3C007000
ENDCHAR

STARTCHAR X
ENCODING 88
SWIDTH 609 0
DWIDTH 20 0
BBX 23 25 1 0
BITMAP
07000E
07001C
03803C
038038
01C070
01C0E0
00E1C0
00E380
007780
007700
003E00
003C00
003C00
007C00
00FE00
00EE00
01CE00
038700
070700
0E0380
1C0380
3C01C0
3801C0
7000E0
E000E0
ENDCHAR

STARTCHAR Y
ENCODING 89
SWIDTH 592 0
DWIDTH 20 0
BBX 19 25 5 0
BITMAP
E000E0
E000C0
6001C0
700380
700700
300700
380E00
381C00
181C00
1C3800
1C7000
0C7000
0EE000
0FC000
0F8000
078000
070000
070000
070000
060000
060000
0E0000
0E0000
0E0000
0C0000
ENDCHAR

STARTCHAR Z
ENCODING 90
SWIDTH 480 0
DWIDTH 16 0
BBX 20 25 0 0
BITMAP
07FFF0
07FFF0
000070
0000E0
0001C0
0003C0
000380
000700
000E00
001C00
003800
003800
007000
00E000
01C000
038000
038000
070000
0E0000
1C0000
380000
780000
700000
FFFF80
FFFF00
ENDCHAR

STARTCHAR bracketleft
ENCODING 91
SWIDTH 351 0
DWIDTH 12 0
BBX 10 27 5 -3
BITMAP
01C0
03C0
0700
0E00
1C00
3800
3800
3000
3000
7000
7000
7000
6000
6000
E000
E000
E000
C000
C000
C000
C000
C000
E000
E000
F000
7800
3800
ENDCHAR

STARTCHAR backslash
ENCODING 92
SWIDTH 605 0
DWIDTH 20 0
BBX 7 25 8 0
BITMAP
C0
C0
C0
E0
E0
60
60
70
70
70
30
30
38
38
18
18
18
1C
1C
0C
0C
0C
0E
0E
06
ENDCHAR

STARTCHAR bracketright
ENCODING 93
SWIDTH 351 0
DWIDTH 12 0
BBX 10 27 1 -3
BITMAP
0700
0780
0380
01C0
01C0
00C0
00C0
00C0
00C0
01C0
01C0
01C0
0180
0180
0380
0380
0380
0300
0300
0700
0700
0600
0E00
1C00
3800
F000
E000
ENDCHAR

STARTCHAR asciicircum
ENCODING 94
SWIDTH 606 0
DWIDTH 20 0
BBX 18 19 3 6
BITMAP
001800
003800
007C00
006C00
00EC00
00CE00
018600
038600
030600
060700
0E0300
0C0300
180380
380380
300180
600180
6001C0
C000C0
C000C0
ENDCHAR

STARTCHAR underscore
ENCODING 95
SWIDTH 500 0
DWIDTH 16 0
BBX 16 2 0 -4
BITMAP
FFFF
FFFF
ENDCHAR

STARTCHAR quoteleft
ENCODING 96
SWIDTH 351 0
DWIDTH 12 0
BBX 5 6 7 19
BITMAP
E0
E0
70
70
38
38
ENDCHAR

STARTCHAR a
ENCODING 97
SWIDTH 683 0
DWIDTH 22 0
BBX 21 19 2 0
BITMAP
00FE38
03FF38
0787B8
1E01F0
1C00F0
3800F0
3000F0
700060
600060
E00060
E000E0
E000E0
E001C0
F001C0
7003C0
780FC0
3E3FC0
1FF9C0
07E1C0
ENDCHAR

STARTCHAR b
ENCODING 98
SWIDTH 682 0
DWIDTH 22 0
BBX 21 25 2 0
BITMAP
0E0000
0E0000
0C0000
0C0000
1C0000
1C0000
1C7F80
1DFFC0
1BE7E0
1F80F0
3E0078
3C0038
380038
380038
300038
700038
700038
700030
700070
7000F0
7800E0
FC03C0
FF0F80
CFFE00
C3F800
ENDCHAR

STARTCHAR c
ENCODING 99
SWIDTH 647 0
DWIDTH 21 0
BBX 19 19 3 0
BITMAP
00FE00
03FF80
07C7C0
0E01E0
1C00E0
3800E0
700000
700000
600000
E00000
E00000
E00000
E00000
700180
700380
780700
3E3E00
1FFC00
07F000
ENDCHAR

STARTCHAR d
ENCODING 100
SWIDTH 685 0
DWIDTH 22 0
BBX 22 25 2 0
BITMAP
00001C
00001C
000018
000018
000018
000038
00FE38
03FF38
07CFB0
0E03F0
1C00F0
3800F0
7000F0
700060
600060
E00060
E000E0
E000E0
E001E0
E001C0
7003C0
780FC0
3E3FC0
1FF9C0
07E180
ENDCHAR

STARTCHAR e
ENCODING 101
SWIDTH 650 0
DWIDTH 21 0
BBX 19 19 3 0
BITMAP
00FE00
03FF00
07EF80
0F03C0
1C01C0
3800E0
3000E0
7000E0
600060
7FFFE0
FFFFE0
E00000
E00000
E00180
700380
780700
3E3E00
1FFC00
0FF000
ENDCHAR

STARTCHAR f
ENCODING 102
SWIDTH 314 0
DWIDTH 10 0
BBX 12 25 4 0
BITMAP
00F0
03E0
0780
0E00
0C00
1C00
FFC0
FFC0
1800
1800
3800
3800
3800
3000
3000
7000
7000
7000
7000
6000
6000
E000
E000
E000
C000
ENDCHAR

STARTCHAR g
ENCODING 103
SWIDTH 673 0
DWIDTH 22 0
BBX 21 26 3 -7
BITMAP
00FC38
03FF38
0787B0
1E01F0
1C00F0
3800F0
700070
700060
600060
E000E0
E000E0
E000E0
E001C0
7003C0
7003C0
780FC0
3E7FC0
1FF980
0FF180
C00380
C00300
E00700
F01E00
7C7C00
3FF800
0FE000
ENDCHAR

STARTCHAR h
ENCODING 104
SWIDTH 610 0
DWIDTH 20 0
BBX 18 25 2 0
BITMAP
0E0000
0E0000
0E0000
0C0000
1C0000
1C0000
1CFE00
1FFF00
1BCF80
1F03C0
3C01C0
3801C0
3800C0
3800C0
3000C0
7001C0
7001C0
7001C0
7001C0
600180
600380
E00380
E00380
E00380
C00300
ENDCHAR

STARTCHAR i
ENCODING 105
SWIDTH 200 0
DWIDTH 7 0
BBX 7 25 2 0
BITMAP
0E
0E
0C
0C
00
00
1C
1C
1C
18
38
38
38
30
30
70
70
70
70
60
60
E0
E0
E0
E0
ENDCHAR

STARTCHAR j
ENCODING 106
SWIDTH 203 0
DWIDTH 7 0
BBX 12 31 -3 -6
BITMAP
0070
0070
0060
0060
0000
0000
00E0
00E0
00C0
00C0
01C0
01C0
01C0
0180
0180
0380
0380
0380
0380
0300
0300
0700
0700
0700
0600
0E00
0E00
1C00
7C00
F800
E000
ENDCHAR

STARTCHAR k
ENCODING 107
SWIDTH 502 0
DWIDTH 17 0
BBX 17 25 2 0
BITMAP
0E0000
0E0000
0C0000
0C0000
1C0000
1C0000
1C0780
1C0700
180E00
181C00
383800
387000
38E000
31C000
33C000
778000
7F8000
7FC000
7DC000
78E000
70F000
E07000
E07800
E03800
C01C00
ENDCHAR

STARTCHAR l
ENCODING 108
SWIDTH 200 0
DWIDTH 7 0
BBX 7 25 2 0
BITMAP
0E
0E
0C
0C
1C
1C
1C
1C
18
18
38
38
38
30
30
70
70
70
70
60
60
E0
E0
E0
C0
ENDCHAR

STARTCHAR m
ENCODING 109
SWIDTH 938 0
DWIDTH 30 0
BBX 29 19 2 0
BITMAP
18F80F80
1BFE7FE0
1F1FF9F0
1E07E070
3C03C030
38038038
38038030
30030030
30030030
70070070
70070070
70070070
60060070
60060060
60060060
E00E00E0
E00E00E0
E00E00E0
C00C00C0
ENDCHAR

STARTCHAR n
ENCODING 110
SWIDTH 610 0
DWIDTH 20 0
BBX 18 19 2 0
BITMAP
1C7C00
1BFF00
1F8780
1E03C0
3C01C0
3801C0
3800C0
3800C0
3000C0
7001C0
7001C0
7001C0
7001C0
600180
600380
E00380
E00380
E00380
C00300
ENDCHAR

STARTCHAR o
ENCODING 111
SWIDTH 655 0
DWIDTH 21 0
BBX 19 19 2 0
BITMAP
00FE00
03FF00
07CF80
0E03C0
1C00E0
3800E0
3000E0
700060
600060
E000E0
E000E0
E000C0
E001C0
700380
700380
780F00
3E7E00
1FFC00
07F000
ENDCHAR

STARTCHAR p
ENCODING 112
SWIDTH 682 0
DWIDTH 22 0
BBX 22 25 1 -6
BITMAP
0E1F80
0CFFE0
0DE0F0
0F8078
1F003C
1E001C
1C001C
1C001C
18001C
38001C
38001C
380018
380038
3C0070
3C00F0
7E01E0
7FCFC0
77FF00
61FC00
600000
E00000
E00000
E00000
C00000
C00000
ENDCHAR

STARTCHAR q
ENCODING 113
SWIDTH 682 0
DWIDTH 23 0
BBX 21 25 3 -6
BITMAP
00FE38
03FFB8
0787B0
1E01F0
1C00F0
3800F0
300070
700060
600060
E00060
E000E0
E000E0
E001E0
7001C0
7003C0
780FC0
3F3FC0
1FF9C0
07F180
000180
000380
000380
000380
000300
000300
ENDCHAR

STARTCHAR r
ENCODING 114
SWIDTH 301 0
DWIDTH 10 0
BBX 11 19 2 0
BITMAP
1DE0
1BE0
1F80
1E00
3C00
3800
3800
3800
3000
7000
7000
7000
7000
6000
6000
E000
E000
E000
C000
ENDCHAR

STARTCHAR s
ENCODING 115
SWIDTH 388 0
DWIDTH 13 0
BBX 13 19 1 0
BITMAP
03F0
0FF8
1E78
1C38
3818
3800
3800
1E00
1FC0
0FE0
01F0
0070
0030
E030
E070
E0F0
F9E0
7FC0
3F00
ENDCHAR

STARTCHAR t
ENCODING 116
SWIDTH 339 0
DWIDTH 11 0
BBX 11 25 3 0
BITMAP
0700
0700
0600
0600
0E00
0E00
FFE0
FFE0
0C00
0C00
1C00
1C00
1C00
1800
1800
3800
3800
3800
3800
3000
3000
7000
7000
7000
6000
ENDCHAR

STARTCHAR u
ENCODING 117
SWIDTH 608 0
DWIDTH 20 0
BBX 19 19 3 0
BITMAP
3800E0
3800E0
3000C0
3000C0
7001C0
7001C0
7001C0
600180
600180
E00380
E00380
E00380
E00380
E00700
E00F00
F01F00
787F00
3FF700
0FC600
ENDCHAR

STARTCHAR v
ENCODING 118
SWIDTH 554 0
DWIDTH 18 0
BBX 17 19 4 0
BITMAP
E00380
E00380
E00700
E00600
700E00
700C00
701C00
701800
383800
387000
387000
38E000
18C000
1DC000
1D8000
1F8000
1F0000
0F0000
0E0000
ENDCHAR

STARTCHAR w
ENCODING 119
SWIDTH 831 0
DWIDTH 27 0
BBX 27 19 4 0
BITMAP
E00000E0
E00000E0
E00C01C0
E01C0180
E01E0380
603E0300
703E0700
707E0E00
70660E00
70E61C00
30C61C00
31C63800
39873800
3B877000
3B076000
3F07E000
1E03C000
1E03C000
1C038000
ENDCHAR

STARTCHAR x
ENCODING 120
SWIDTH 480 0
DWIDTH 16 0
BBX 18 19 1 0
BITMAP
1C01C0
1C0380
0E0700
0E0E00
071C00
073C00
077800
03F000
03E000
01C000
03E000
07E000
0EF000
1C7000
1C7800
383800
703C00
E01C00
E01E00
ENDCHAR

STARTCHAR y
ENCODING 121
SWIDTH 536 0
DWIDTH 17 0
BBX 17 25 4 -6
BITMAP
E00380
E00300
E00700
E00E00
600E00
701C00
703800
703800
707000
307000
38E000
39C000
39C000
3B8000
1B0000
1F0000
1E0000
1E0000
1C0000
380000
380000
700000
600000
E00000
C00000
ENDCHAR

STARTCHAR z
ENCODING 122
SWIDTH 425 0
DWIDTH 14 0
BBX 16 19 0 0
BITMAP
0FFF
0FFF
0007
000E
001C
0038
0078
00F0
01E0
01C0
0380
0700
0E00
1C00
3C00
7800
7000
FFFC
FFFC
ENDCHAR

STARTCHAR braceleft
ENCODING 123
SWIDTH 351 0
DWIDTH 12 0
BBX 10 31 3 -5
BITMAP
0080
01C0
0300
0700
0600
0600
0E00
0E00
0E00
0C00
0C00
1C00
1C00
1800
7000
E000
7000
3000
3800
3000
3000
3000
7000
7000
7000
6000
6000
6000
6000
3000
1000
ENDCHAR

STARTCHAR bar
ENCODING 124
SWIDTH 672 0
DWIDTH 22 0
BBX 7 25 10 0
BITMAP
0E
0C
0C
0C
0C
1C
1C
18
18
18
18
38
30
30
30
30
70
70
60
60
60
60
E0
C0
C0
ENDCHAR

STARTCHAR braceright
ENCODING 125
SWIDTH 351 0
DWIDTH 12 0
BBX 10 31 1 -5
BITMAP
0200
0300
0180
0180
0180
0180
0380
0380
0380
0300
0300
0700
0700
0700
0380
01C0
0700
0600
0E00
0C00
0C00
0C00
1C00
1C00
1C00
1800
1800
3800
3000
E000
4000
ENDCHAR

STARTCHAR asciitilde
ENCODING 126
SWIDTH 606 0
DWIDTH 20 0
BBX 16 5 4 8
BITMAP
1E02
3F87
7FFE
E1FC
4078
ENDCHAR

STARTCHAR exclamdown
ENCODING 161
SWIDTH 295 0
DWIDTH 10 0
BBX 7 25 3 -6
BITMAP
0E
0E
0E
0E
00
00
00
18
18
38
38
38
38
30
30
70
70
70
60
60
E0
E0
E0
C0
C0
ENDCHAR

STARTCHAR cent
ENCODING 162
SWIDTH 554 0
DWIDTH 18 0
BBX 15 21 4 2
BITMAP
0060
0060
0060
03F8
0FFC
1F3E
380E
7006
6000
E000
E000
E000
E000
E000
703C
7CF8
3FF0
1FC0
0300
0700
0700
ENDCHAR

STARTCHAR sterling
ENCODING 163
SWIDTH 554 0
DWIDTH 18 0
BBX 19 25 2 0
BITMAP
003F00
00FF80
01E3C0
0380E0
0700E0
060060
0E0060
0C0000
0C0000
0C0000
0E0000
7FFE00
7FFE00
070000
038000
018000
0180E0
0180E0
0180C0
0181C0
0381C0
030380
071F00
7FFE00
FFF800
ENDCHAR

STARTCHAR currency
ENCODING 164
SWIDTH 554 0
DWIDTH 18 0
BBX 18 17 2 2
BITMAP
19FC80
3FFFC0
1F9FC0
1E0780
380380
380380
700180
700180
600180
600380
600380
600700
700F00
781E00
FE7E00
FFFE00
4FE400
ENDCHAR

STARTCHAR yen
ENCODING 165
SWIDTH 554 0
DWIDTH 18 0
BBX 21 25 3 0
BITMAP
380038
380038
180070
1C00E0
1C00E0
1C01C0
0E0380
0E0700
0E0700
070E00
7F1FC0
7F1FC0
03B800
03F000
03F000
7FFF80
FFFF80
01C000
01C000
018000
018000
038000
038000
038000
030000
ENDCHAR

STARTCHAR brokenbar
ENCODING 166
SWIDTH 672 0
DWIDTH 22 0
BBX 7 25 10 0
BITMAP
0E
0C
0C
0C
0C
1C
1C
18
18
18
00
00
00
00
00
30
70
70
60
60
60
60
E0
C0
C0
ENDCHAR

STARTCHAR section
ENCODING 167
SWIDTH 615 0
DWIDTH 20 0
BBX 15 29 4 -4
BITMAP
00F8
03FE
039E
0706
0606
0E00
0E00
0700
0780
0FE0
18F8
387C
301E
700E
7006
380E
3E0C
0F9C
07F8
01F0
00F0
0030
E038
E038
E030
E070
71E0
3FC0
1F80
ENDCHAR

STARTCHAR dieresis
ENCODING 168
SWIDTH 369 0
DWIDTH 12 0
BBX 8 4 7 21
BITMAP
E7
E7
E7
E7
ENDCHAR

STARTCHAR copyright
ENCODING 169
SWIDTH 747 0
DWIDTH 24 0
BBX 26 25 1 0
BITMAP
0007E000
003FF800
00F01E00
01C00700
07000300
0E000180
1C0FE0C0
183C70C0
307030C0
20E01040
60C00040
60C00040
C18000C0
C18000C0
C18000C0
C1C02080
C0C06180
60E0C300
607F8300
700E0600
38000C00
1C003800
0F00E000
03FF8000
007E0000
ENDCHAR

STARTCHAR ordfeminine
ENCODING 170
SWIDTH 369 0
DWIDTH 12 0
BBX 13 14 3 11
BITMAP
07D8
1EF8
1830
3030
6030
6030
6070
3070
39E0
0F60
0000
0000
0000
FFC0
ENDCHAR

STARTCHAR guillemotleft
ENCODING 171
SWIDTH 425 0
DWIDTH 14 0
BBX 12 13 3 4
BITMAP
0410
0C30
1C70
38E0
71C0
E380
E380
E380
71C0
71C0
38E0
38E0
1040
ENDCHAR

STARTCHAR logicalnot
ENCODING 172
SWIDTH 606 0
DWIDTH 20 0
BBX 17 9 4 6
BITMAP
7FFF80
FFFF80
FFFF80
000380
000380
000700
000700
000700
000700
ENDCHAR

STARTCHAR hyphen
ENCODING 173
SWIDTH 332 0
DWIDTH 11 0
BBX 9 2 3 9
BITMAP
FF80
FF80
ENDCHAR

STARTCHAR registered
ENCODING 174
SWIDTH 747 0
DWIDTH 25 0
BBX 26 25 1 0
BITMAP
0007E000
003FF800
00F01E00
01C00700
07000380
0E000180
1C3FF0C0
183038C0
303018C0
20301840
60303040
60607040
C07FE040
C06300C0
C06180C0
C0618180
40418180
60C0C300
60C0C300
30000600
38001C00
1C003800
0F00E000
03FF8000
007E0000
ENDCHAR

STARTCHAR macron
ENCODING 175
SWIDTH 485 0
DWIDTH 16 0
BBX 11 2 7 21
BITMAP
FFE0
FFE0
ENDCHAR

STARTCHAR degree
ENCODING 176
SWIDTH 400 0
DWIDTH 13 0
BBX 10 10 5 15
BITMAP
0F00
3980
60C0
60C0
4040
C0C0
C080
4180
7300
3E00
ENDCHAR

STARTCHAR plusminus
ENCODING 177
SWIDTH 606 0
DWIDTH 20 0
BBX 19 19 2 0
BITMAP
001800
003800
003800
003800
003800
003000
3FFFE0
3FFFE0
3FFFE0
007000
006000
006000
00E000
00E000
000000
000000
FFFF80
FFFF80
FFFF80
ENDCHAR

STARTCHAR twosuperior
ENCODING 178
SWIDTH 332 0
DWIDTH 11 0
BBX 13 15 2 10
BITMAP
07E0
0E70
1838
3018
3018
0030
0030
00E0
01C0
0380
0E00
1C00
3800
E000
FFE0
ENDCHAR

STARTCHAR threesuperior
ENCODING 179
SWIDTH 332 0
DWIDTH 11 0
BBX 11 15 3 10
BITMAP
0FC0
1CC0
1860
3060
0040
03C0
0780
01C0
00C0
0060
C060
C0C0
C1C0
6380
3E00
ENDCHAR

STARTCHAR acute
ENCODING 180
SWIDTH 375 0
DWIDTH 13 0
BBX 7 6 8 20
BITMAP
02
0E
3E
F8
E0
80
ENDCHAR

STARTCHAR mu
ENCODING 181
SWIDTH 608 0
DWIDTH 20 0
BBX 21 25 1 -6
BITMAP
0E0038
0E0038
0C0030
0C0030
1C0070
1C0070
1C0070
180060
180060
3800E0
3800E0
3800E0
3800E0
3801C0
3803C0
7C07C0
7FBFC0
7FFDC0
67F180
600000
E00000
E00000
E00000
E00000
C00000
ENDCHAR

STARTCHAR paragraph
ENCODING 182
SWIDTH 564 0
DWIDTH 18 0
BBX 16 29 5 -4
BITMAP
0FFF
1FFF
3F86
7F86
FF86
FF8E
FF8E
FF8E
FF0C
FF0C
7F1C
7F1C
1F1C
0618
0618
0E18
0E38
0E38
0C38
0C30
0C30
1C70
1C70
1C70
1860
1860
38E0
38E0
38E0
ENDCHAR

STARTCHAR periodcentered
ENCODING 183
SWIDTH 277 0
DWIDTH 9 0
BBX 3 4 5 8
BITMAP
E0
E0
E0
E0
ENDCHAR

STARTCHAR cedilla
ENCODING 184
SWIDTH 324 0
DWIDTH 11 0
BBX 5 7 2 -7
BITMAP
20
20
70
48
08
98
F0
ENDCHAR

STARTCHAR onesuperior
ENCODING 185
SWIDTH 332 0
DWIDTH 11 0
BBX 4 15 8 10
BITMAP
F0
30
30
30
30
30
60
60
60
60
60
40
C0
C0
C0
ENDCHAR

STARTCHAR ordmasculine
ENCODING 186
SWIDTH 369 0
DWIDTH 12 0
BBX 12 14 3 11
BITMAP
07C0
0EE0
1820
3030
3030
2020
3060
3040
39C0
1F00
0000
0000
0000
FFC0
ENDCHAR

STARTCHAR guillemotright
ENCODING 187
SWIDTH 425 0
DWIDTH 14 0
BBX 12 13 3 4
BITMAP
2080
71C0
71C0
38E0
38E0
1C70
1C70
1C70
38E0
71C0
E380
C300
8200
ENDCHAR

STARTCHAR onequarter
ENCODING 188
SWIDTH 831 0
DWIDTH 28 0
BBX 20 25 8 0
BITMAP
F00300
300300
300600
300E00
300C00
301800
603800
603000
607000
606000
60C070
41C0E0
C181E0
C30360
C30260
060660
0E0C60
0C18C0
1830C0
3860C0
30C0C0
70FFE0
600080
C00180
C00180
ENDCHAR

STARTCHAR onehalf
ENCODING 189
SWIDTH 831 0
DWIDTH 28 0
BBX 21 25 8 0
BITMAP
F00300
300300
300600
300E00
300C00
301800
603800
603000
607000
606000
60C3E0
41C630
C18C18
C31818
C31818
060018
0E0030
0C0060
1800C0
380380
300700
700E00
601800
C07000
C07FE0
ENDCHAR

STARTCHAR threequarters
ENCODING 190
SWIDTH 831 0
DWIDTH 28 0
BBX 25 25 3 0
BITMAP
0FC00C00
1CC00C00
18601800
30603800
00403000
03C06000
0780E000
01C0C000
00C1C000
00618000
C0630380
C0C70700
C1C60F00
638C0B00
3E1C1B00
00183300
00386300
0070C600
00618600
00E30600
00C60600
0187FF00
03800400
03000C00
06000C00
ENDCHAR

STARTCHAR questiondown
ENCODING 191
SWIDTH 591 0
DWIDTH 19 0
BBX 15 26 2 -7
BITMAP
0038
0038
0038
0038
0000
0000
0060
00E0
00E0
01C0
03C0
0780
0F00
1E00
3C00
7000
E000
E002
E006
E006
E00E
E01C
F038
7CF8
3FE0
1FC0
ENDCHAR

STARTCHAR Agrave
ENCODING 192
SWIDTH 740 0
DWIDTH 24 0
BBX 23 27 1 0
BITMAP
002000
003800
003E00
000F80
000380
000080
0003C0
0007C0
0007C0
000EC0
001CC0
003CE0
007860
00F060
00E070
01C070
038038
07FFF8
0FFFF8
0E0038
1C0018
1C001C
38001C
70001C
70000C
E0000E
C0000E
ENDCHAR

STARTCHAR Aacute
ENCODING 193
SWIDTH 740 0
DWIDTH 24 0
BBX 23 27 1 0
BITMAP
000004
00001C
00007C
0001F0
0001C0
000100
0003C0
0007C0
0007C0
000EE0
001CE0
003C60
003860
007860
00F070
01E030
03C038
07FFF8
07FFF8
0E0038
1C0018
1C001C
38001C
70001C
70000C
E0000E
C0000E
ENDCHAR

STARTCHAR Acircumflex
ENCODING 194
SWIDTH 740 0
DWIDTH 24 0
BBX 23 27 1 0
BITMAP
0003C0
0007E0
000E70
001C38
000000
000000
0003C0
0007C0
0007C0
000EE0
001CE0
003C60
003860
007860
00F070
01E030
03C038
07FFF8
07FFF8
0E0038
1C0018
1C001C
38001C
70001C
70000C
E0000E
C0000E
ENDCHAR

STARTCHAR Atilde
ENCODING 195
SWIDTH 740 0
DWIDTH 24 0
BBX 23 26 1 0
BITMAP
0003C4
0007FC
000478
000000
000000
0003C0
0007C0
0007C0
000EC0
001CC0
003CE0
007860
00F060
00E070
01C070
03C038
07FFF8
0FFFF8
0E0038
1C0018
1C001C
38001C
70001C
70000C
E0000E
C0000E
ENDCHAR

STARTCHAR Adieresis
ENCODING 196
SWIDTH 740 0
DWIDTH 24 0
BBX 23 27 1 0
BITMAP
000E70
000E70
000E70
000E70
000000
000000
0003C0
0007C0
0007C0
000EC0
001CC0
003CE0
007860
00F060
00E070
01C070
038038
07FFF8
0FFFF8
0E0038
1C0018
1C001C
38001C
70001C
70000C
E0000E
C0000E
ENDCHAR

STARTCHAR Aring
ENCODING 197
SWIDTH 740 0
DWIDTH 24 0
BBX 23 26 1 0
BITMAP
000180
000340
000440
0004C0
000380
0003C0
0007C0
0007C0
000EC0
001CC0
003CE0
007860
00F060
00E070
01C070
03C038
07FFF8
0FFFF8
0E0038
1C0018
1C001C
38001C
70001C
70000C
E0000E
C0000E
ENDCHAR

STARTCHAR AE
ENCODING 198
SWIDTH 992 0
DWIDTH 32 0
BBX 35 25 1 0
BITMAP
00000FFFE0
00001FFFE0
00003F0000
00003E0000
00007E0000
0000EE0000
0001CE0000
00038E0000
00078C0000
000F0C0000
001E1C0000
001C1C0000
00381FFF00
00701FFF00
00F0180000
01FFF80000
03FFF80000
0780380000
0700380000
0E00300000
1C00300000
3800700000
7000700000
F0007FFC00
E0007FFC00
ENDCHAR

STARTCHAR Ccedilla
ENCODING 199
SWIDTH 813 0
DWIDTH 26 0
BBX 25 32 4 -7
BITMAP
001FE000
00FFF800
01F87E00
07C01F00
0F000700
1E000380
1C000380
38000000
70000000
70000000
60000000
E0000000
E0000000
E0000000
C0000000
E0000000
E0000000
E0000000
F0000C00
70001C00
78003800
3E00F000
1F87E000
0FFF8000
03FE0000
00080000
00080000
001C0000
00120000
00020000
00260000
003C0000
ENDCHAR

STARTCHAR Egrave
ENCODING 200
SWIDTH 536 0
DWIDTH 17 0
BBX 17 27 3 0
BITMAP
040000
070000
07C000
01F000
007000
001000
1FFF80
1FFF80
1C0000
1C0000
180000
180000
380000
380000
380000
3FFE00
3FFE00
700000
700000
700000
700000
600000
600000
E00000
E00000
FFF800
FFF800
ENDCHAR

STARTCHAR Eacute
ENCODING 201
SWIDTH 536 0
DWIDTH 17 0
BBX 17 27 3 0
BITMAP
000100
000700
001F00
007C00
007000
004000
1FFF80
1FFF80
1C0000
1C0000
180000
180000
380000
380000
3FFE00
3FFE00
300000
700000
700000
700000
700000
600000
600000
E00000
E00000
FFF800
FFF800
ENDCHAR

STARTCHAR Ecircumflex
ENCODING 202
SWIDTH 536 0
DWIDTH 17 0
BBX 17 26 3 0
BITMAP
007800
00FC00
01CE00
000000
000000
1FFF80
1FFF80
1C0000
1C0000
180000
180000
380000
380000
3FFE00
3FFE00
300000
700000
700000
700000
700000
600000
600000
E00000
E00000
FFF800
FFF800
ENDCHAR

STARTCHAR Edieresis
ENCODING 203
SWIDTH 536 0
DWIDTH 17 0
BBX 17 27 3 0
BITMAP
01CE00
01CE00
01CE00
01CE00
000000
000000
1FFF80
1FFF80
1C0000
1C0000
180000
180000
380000
380000
3FFE00
3FFE00
300000
700000
700000
700000
700000
600000
600000
E00000
E00000
FFF800
FFF800
ENDCHAR

STARTCHAR Igrave
ENCODING 204
SWIDTH 226 0
DWIDTH 7 0
BBX 7 27 3 0
BITMAP
80
E0
F8
3E
0E
02
0E
0E
1C
1C
18
18
38
38
38
30
30
70
70
70
70
60
60
E0
E0
E0
E0
ENDCHAR

STARTCHAR Iacute
ENCODING 205
SWIDTH 226 0
DWIDTH 7 0
BBX 11 27 3 0
BITMAP
0020
00E0
03E0
0F80
0E00
0800
1C00
1C00
1C00
1C00
1800
1800
3800
3800
3800
3000
3000
7000
7000
7000
7000
6000
6000
E000
E000
E000
C000
ENDCHAR

STARTCHAR Icircumflex
ENCODING 206
SWIDTH 226 0
DWIDTH 7 0
BBX 11 27 3 0
BITMAP
0F00
1F80
39C0
70E0
0000
0000
0E00
0E00
0C00
0C00
1C00
1800
3800
3800
3800
3000
3000
7000
7000
7000
7000
6000
6000
E000
E000
E000
C000
ENDCHAR

STARTCHAR Idieresis
ENCODING 207
SWIDTH 226 0
DWIDTH 7 0
BBX 10 27 3 0
BITMAP
39C0
39C0
39C0
39C0
0000
0000
0E00
0E00
1C00
1C00
1800
1800
3800
3800
3800
3000
3000
7000
7000
7000
7000
6000
6000
E000
E000
E000
C000
ENDCHAR

STARTCHAR Eth
ENCODING 208
SWIDTH 790 0
DWIDTH 25 0
BBX 25 25 2 0
BITMAP
07FFC000
07FFF000
0703F800
06003C00
0E001E00
0E000F00
0E000700
0E000700
0C000380
0C000380
1C000380
FFC00380
FFC00380
18000300
18000700
38000700
38000E00
38000E00
38001C00
30003800
30007000
7001E000
700FC000
7FFF0000
7FFC0000
ENDCHAR

STARTCHAR Ntilde
ENCODING 209
SWIDTH 740 0
DWIDTH 24 0
BBX 24 26 3 0
BITMAP
000F10
001FF0
0011E0
000000
000000
0F0007
0F8007
0F8006
1DC00E
19E00E
18E00C
38F01C
38701C
38381C
303818
301C18
701E38
700E38
700738
700738
6003B0
6003B0
E001F0
E001F0
E000F0
C000E0
ENDCHAR

STARTCHAR Ograve
ENCODING 210
SWIDTH 869 0
DWIDTH 28 0
BBX 26 27 4 0
BITMAP
00400000
00700000
007C0000
001F0000
00070000
00010000
001FE000
00FFF800
01F87C00
07C01E00
0F000700
1E000780
1C000380
380001C0
700001C0
700001C0
600001C0
E00003C0
E0000380
E0000700
E0000F00
70001E00
78003C00
3C00F800
1F87F000
0FFFC000
03FF0000
ENDCHAR

STARTCHAR Oacute
ENCODING 211
SWIDTH 869 0
DWIDTH 28 0
BBX 26 27 4 0
BITMAP
00000800
00003800
0000F800
0003E000
00038000
00020000
001FE000
00FFF800
01F87C00
07C01E00
0F000700
1E000780
1C000380
380001C0
700001C0
700001C0
600001C0
E00003C0
E0000380
E0000700
E0000F00
70001E00
78003C00
3C00F800
1F87F000
0FFFC000
03FF0000
ENDCHAR

STARTCHAR Ocircumflex
ENCODING 212
SWIDTH 869 0
DWIDTH 28 0
BBX 26 27 4 0
BITMAP
00078000
000FC000
001CE000
00387000
00000000
00000000
001FE000
00FFF800
01F87C00
07C01E00
0F000700
1E000780
1C000380
380001C0
700001C0
700001C0
600001C0
E00003C0
E0000380
E0000700
E0000F00
70001E00
78003C00
3C00F800
1F87F000
0FFFC000
03FF0000
ENDCHAR

STARTCHAR Otilde
ENCODING 213
SWIDTH 869 0
DWIDTH 28 0
BBX 26 26 4 0
BITMAP
000F1000
001FF000
0011E000
00000000
00000000
001FE000
00FFF800
01F87C00
07C01E00
0F000700
1E000780
1C000380
380001C0
700001C0
700001C0
600001C0
E00003C0
E0000380
E0000700
E0000F00
70001E00
78003C00
3C00F800
1F87F000
0FFFC000
03FF0000
ENDCHAR

STARTCHAR Odieresis
ENCODING 214
SWIDTH 869 0
DWIDTH 28 0
BBX 26 27 4 0
BITMAP
00738000
00738000
00738000
00738000
00000000
00000000
001FE000
00FFF800
01F87C00
07C01E00
0F000700
1E000780
1C000380
380001C0
700001C0
700001C0
600001C0
E00003C0
E0000380
E0000700
E0000F00
70001E00
78003C00
3C00F800
1F87F000
0FFFC000
03FF0000
ENDCHAR

STARTCHAR multiply
ENCODING 215
SWIDTH 606 0
DWIDTH 20 0
BBX 19 16 3 2
BITMAP
1C00E0
1C01E0
1E0780
0F0F00
079E00
03FC00
01F800
01E000
03F000
07F800
0F3C00
1E1E00
3C0E00
F00F00
E00700
400200
ENDCHAR

STARTCHAR Oslash
ENCODING 216
SWIDTH 868 0
DWIDTH 28 0
BBX 27 29 3 -2
BITMAP
00000060
000000E0
000FF1C0
007FFF80
00FC3F00
03E00F00
07800F80
0F001FC0
0E0039C0
1C0070C0
3800E0E0
3801C0E0
300380E0
700700E0
700E00E0
601C00C0
603801C0
707001C0
70F00380
70E00380
71C00700
3B800E00
3F001C00
1E007800
1FC3F000
3FFFC000
70FF0000
E0000000
C0000000
ENDCHAR

STARTCHAR Ugrave
ENCODING 217
SWIDTH 655 0
DWIDTH 21 0
BBX 19 27 4 0
BITMAP
080000
0E0000
0F8000
03E000
00E000
002000
3800E0
3800E0
3800E0
3800E0
3800E0
3801C0
7001C0
7001C0
7001C0
600180
600180
600380
E00380
E00300
E00700
E00700
E00E00
701C00
7EFC00
3FF000
0FE000
ENDCHAR

STARTCHAR Uacute
ENCODING 218
SWIDTH 655 0
DWIDTH 21 0
BBX 19 27 4 0
BITMAP
000100
000700
001F00
007C00
007000
004000
3800E0
3800E0
3800E0
3800E0
3800E0
3801C0
7001C0
7001C0
7001C0
600180
600180
600380
E00380
E00300
E00700
E00700
E00E00
701C00
7EFC00
3FF000
0FE000
ENDCHAR

STARTCHAR Ucircumflex
ENCODING 219
SWIDTH 655 0
DWIDTH 21 0
BBX 19 27 4 0
BITMAP
00F000
01F800
039C00
070E00
000000
000000
3800E0
3800E0
3800E0
3800E0
3800E0
3801C0
7001C0
7001C0
7001C0
600180
600180
600380
E00380
E00300
E00700
E00700
E00E00
701C00
7EFC00
3FF000
0FE000
ENDCHAR

STARTCHAR Udieresis
ENCODING 220
SWIDTH 655 0
DWIDTH 21 0
BBX 19 27 4 0
BITMAP
039C00
039C00
039C00
039C00
000000
000000
3800E0
3800E0
3800E0
3800E0
3800E0
3801C0
7001C0
7001C0
7001C0
600180
600180
600380
E00380
E00300
E00700
E00700
E00E00
701C00
7EFC00
3FF000
0FE000
ENDCHAR

STARTCHAR Yacute
ENCODING 221
SWIDTH 592 0
DWIDTH 19 0
BBX 19 27 5 0
BITMAP
000400
001C00
007C00
01F000
01C000
010000
E000E0
E001E0
7003C0
700780
380F00
1C1E00
1C3C00
0C7800
0EF000
0FE000
0FC000
078000
070000
070000
070000
060000
0E0000
0E0000
0E0000
0E0000
0E0000
ENDCHAR

STARTCHAR Thorn
ENCODING 222
SWIDTH 592 0
DWIDTH 19 0
BBX 19 25 3 0
BITMAP
0E0000
0E0000
0C0000
0C0000
1C0000
1FFE00
1FFF80
1C0FC0
1801C0
1800E0
3800E0
3800E0
3800E0
3000C0
3001C0
700380
700780
701F00
7FFE00
7FF800
600000
E00000
E00000
E00000
C00000
ENDCHAR

STARTCHAR germandbls
ENCODING 223
SWIDTH 554 0
DWIDTH 18 0
BBX 17 25 2 0
BITMAP
00FC00
03FE00
07DF00
070700
0E0380
0C0380
1C0380
1C0300
180700
180700
380E00
383C00
39F800
31FE00
301F00
700700
700700
700300
780300
780700
780700
FC0E00
FE3C00
CFF800
C7F000
ENDCHAR

STARTCHAR agrave
ENCODING 224
SWIDTH 683 0
DWIDTH 22 0
BBX 21 25 2 0
BITMAP
010000
01C000
01F000
007C00
001C00
000400
00FE38
03FF38
0787B8
1E01F0
1C00F0
3800F0
3000F0
700060
600060
E00060
E000E0
E000E0
E001C0
F001C0
7003C0
780FC0
3E3FC0
1FF9C0
07E1C0
ENDCHAR

STARTCHAR aacute
ENCODING 225
SWIDTH 683 0
DWIDTH 22 0
BBX 21 26 2 0
BITMAP
000020
0000E0
0003E0
000F80
000E00
000800
000000
00FE38
03FF38
0787B8
1E01F0
1C00F0
3800F0
3000F0
700060
600060
E00060
E000E0
E000E0
E001C0
F001C0
7003C0
780FC0
3E3FC0
1FF9C0
07E1C0
ENDCHAR

STARTCHAR acircumflex
ENCODING 226
SWIDTH 683 0
DWIDTH 22 0
BBX 21 25 2 0
BITMAP
001E00
003F00
007380
00E1C0
000000
000000
00FE38
03FF38
0787B8
1E01F0
1C00F0
3800F0
3000F0
700060
600060
E00060
E000E0
E000E0
E001C0
F001C0
7003C0
780FC0
3E3FC0
1FF9C0
07E1C0
ENDCHAR

STARTCHAR atilde
ENCODING 227
SWIDTH 683 0
DWIDTH 22 0
BBX 21 24 2 0
BITMAP
01E200
03FE00
023C00
000000
000000
00FE38
03FF38
0787B8
1E01F0
1C00F0
3800F0
3000F0
700060
600060
E00060
E000E0
E000E0
E001C0
F001C0
7003C0
780FC0
3E3FC0
1FF9C0
07E1C0
ENDCHAR

STARTCHAR adieresis
ENCODING 228
SWIDTH 683 0
DWIDTH 22 0
BBX 21 25 2 0
BITMAP
00E700
00E700
00E700
00E700
000000
000000
00FE38
03FF38
0787B8
1E01F0
1C00F0
3800F0
3000F0
700060
600060
E00060
E000E0
E000E0
E001C0
F001C0
7003C0
780FC0
3E3FC0
1FF9C0
07E1C0
ENDCHAR

STARTCHAR aring
ENCODING 229
SWIDTH 683 0
DWIDTH 22 0
BBX 21 26 2 0
BITMAP
003000
006800
008800
009800
007000
000000
000000
00FE38
03FF38
0787B8
1E01F0
1C00F0
3800F0
3000F0
700060
600060
E00060
E000E0
E000E0
E001C0
F001C0
7003C0
780FC0
3E3FC0
1FF9C0
07E1C0
ENDCHAR

STARTCHAR ae
ENCODING 230
SWIDTH 1157 0
DWIDTH 37 0
BBX 36 19 2 0
BITMAP
00FF1C7E00
03FF99FF80
07EFDBEFC0
0F01FF01E0
1C00FE00E0
38007C00E0
3800780070
7000780070
7000700070
60007FFFE0
E0007FFFE0
E000700000
E000F00000
E000F001C0
7001F80180
7807FC0780
3E1FFF1F00
1FFECFFC00
07F8C7F000
ENDCHAR

STARTCHAR ccedilla
ENCODING 231
SWIDTH 647 0
DWIDTH 21 0
BBX 19 26 3 -7
BITMAP
00FE00
03FF80
07C7C0
0E01E0
1C00E0
3800E0
700000
700000
600000
E00000
E00000
E00000
E00000
700180
700380
780700
3E3E00
1FFC00
07F000
004000
004000
00E000
009000
001000
013000
01E000
ENDCHAR

STARTCHAR egrave
ENCODING 232
SWIDTH 650 0
DWIDTH 21 0
BBX 19 25 3 0
BITMAP
020000
038000
03E000
00F800
003800
000800
00FE00
03FF00
07EF80
0F03C0
1C01C0
3800E0
3000E0
7000E0
600060
7FFFE0
FFFFE0
E00000
E00000
E00180
700380
780700
3E3E00
1FFC00
0FF000
ENDCHAR

STARTCHAR eacute
ENCODING 233
SWIDTH 650 0
DWIDTH 21 0
BBX 19 26 3 0
BITMAP
000800
003800
00F800
03E000
038000
020000
000000
00FE00
03FF00
07EF80
0F03C0
1C01C0
3800E0
3000E0
7000E0
600060
7FFFE0
FFFFE0
E00000
E00000
E00180
700380
780700
3E3E00
1FFC00
0FF000
ENDCHAR

STARTCHAR ecircumflex
ENCODING 234
SWIDTH 650 0
DWIDTH 21 0
BBX 19 25 3 0
BITMAP
01E000
03F000
073800
0E1C00
000000
000000
00FE00
03FF00
07EF80
0F03C0
1C01C0
3800E0
3000E0
7000E0
600060
7FFFE0
FFFFE0
E00000
E00000
E00180
700380
780700
3E3E00
1FFC00
0FF000
ENDCHAR

STARTCHAR edieresis
ENCODING 235
SWIDTH 650 0
DWIDTH 21 0
BBX 19 25 3 0
BITMAP
073800
073800
073800
073800
000000
000000
00FE00
03FF00
07EF80
0F03C0
1C01C0
3800E0
3000E0
7000E0
600060
7FFFE0
FFFFE0
E00000
E00000
E00180
700380
780700
3E3E00
1FFC00
0FF000
ENDCHAR

STARTCHAR igrave
ENCODING 236
SWIDTH 200 0
DWIDTH 7 0
BBX 7 25 2 0
BITMAP
80
E0
F8
3E
0E
02
1C
1C
18
18
38
38
38
30
30
70
70
70
70
60
60
E0
E0
E0
C0
ENDCHAR

STARTCHAR iacute
ENCODING 237
SWIDTH 200 0
DWIDTH 7 0
BBX 7 26 2 0
BITMAP
02
0E
3E
F8
E0
80
00
1C
1C
18
18
38
38
38
30
30
70
70
70
70
60
60
E0
E0
E0
C0
ENDCHAR

STARTCHAR icircumflex
ENCODING 238
SWIDTH 200 0
DWIDTH 7 0
BBX 10 25 0 0
BITMAP
1E00
3F00
7380
E1C0
0000
0000
0700
0700
0600
0600
0E00
0E00
0E00
0C00
0C00
1C00
1C00
1C00
1C00
1800
1800
3800
3800
3800
3000
ENDCHAR

STARTCHAR idieresis
ENCODING 239
SWIDTH 200 0
DWIDTH 7 0
BBX 8 25 1 0
BITMAP
E7
E7
E7
E7
00
00
0E
0E
0C
0C
1C
1C
1C
18
18
38
38
38
38
30
30
70
70
70
60
ENDCHAR

STARTCHAR eth
ENCODING 240
SWIDTH 655 0
DWIDTH 22 0
BBX 19 25 3 0
BITMAP
03E3C0
007F00
007E00
00C700
000380
0001C0
00FEC0
03FFE0
07CFE0
0E03E0
1C00E0
3800E0
7000E0
700060
600060
E000E0
E000E0
E000C0
E001C0
7003C0
700380
780F00
3E7E00
1FF800
07F000
ENDCHAR

STARTCHAR ntilde
ENCODING 241
SWIDTH 610 0
DWIDTH 20 0
BBX 18 24 2 0
BITMAP
078800
0FF800
08F000
000000
000000
1C7C00
1BFF00
1F8780
1E03C0
3C01C0
3801C0
3800C0
3800C0
3000C0
7001C0
7001C0
7001C0
7001C0
600180
600380
E00380
E00380
E00380
C00300
ENDCHAR

STARTCHAR ograve
ENCODING 242
SWIDTH 655 0
DWIDTH 21 0
BBX 19 25 2 0
BITMAP
020000
038000
03E000
00F800
003800
000800
00FE00
03FF00
07CF80
0E03C0
1C00E0
3800E0
3000E0
700060
600060
E000E0
E000E0
E000C0
E001C0
700380
700380
780F00
3E7E00
1FFC00
07F000
ENDCHAR

STARTCHAR oacute
ENCODING 243
SWIDTH 655 0
DWIDTH 21 0
BBX 19 26 2 0
BITMAP
000800
003800
00F800
03E000
038000
020000
000000
00FE00
03FF00
07CF80
0E03C0
1C00E0
3800E0
3000E0
700060
600060
E000E0
E000E0
E000C0
E001C0
700380
700380
780F00
3E7E00
1FFC00
07F000
ENDCHAR

STARTCHAR ocircumflex
ENCODING 244
SWIDTH 655 0
DWIDTH 21 0
BBX 19 25 2 0
BITMAP
01E000
03F000
073800
0E1C00
000000
000000
00FE00
03FF00
07CF80
0E03C0
1C00E0
3800E0
3000E0
700060
600060
E000E0
E000E0
E000C0
E001C0
700380
700380
780F00
3E7E00
1FFC00
07F000
ENDCHAR

STARTCHAR otilde
ENCODING 245
SWIDTH 655 0
DWIDTH 21 0
BBX 19 24 2 0
BITMAP
03C400
07FC00
047800
000000
000000
00FE00
03FF00
07CF80
0E03C0
1C00E0
3800E0
3000E0
700060
600060
E000E0
E000E0
E000C0
E001C0
700380
700380
780F00
3E7E00
1FFC00
07F000
ENDCHAR

STARTCHAR odieresis
ENCODING 246
SWIDTH 655 0
DWIDTH 21 0
BBX 19 25 2 0
BITMAP
073800
073800
073800
073800
000000
000000
00FE00
03FF00
07CF80
0E03C0
1C00E0
3800E0
3000E0
700060
600060
E000E0
E000E0
E000C0
E001C0
700380
700380
780F00
3E7E00
1FFC00
07F000
ENDCHAR

STARTCHAR divide
ENCODING 247
SWIDTH 606 0
DWIDTH 20 0
BBX 17 17 4 2
BITMAP
006000
00E000
00E000
000000
000000
000000
000000
FFFF80
FFFF80
FFFF80
000000
000000
000000
000000
038000
030000
030000
ENDCHAR

STARTCHAR oslash
ENCODING 248
SWIDTH 653 0
DWIDTH 21 0
BBX 20 21 2 -1
BITMAP
000060
00FE70
03FFE0
07C7C0
0E03C0
1C07E0
380EE0
301CE0
703860
607060
E0E0E0
E1C0E0
61C0E0
6381C0
770380
7E0380
7C0F00
3E7E00
7FF800
E7F000
C00000
ENDCHAR

STARTCHAR ugrave
ENCODING 249
SWIDTH 608 0
DWIDTH 20 0
BBX 19 25 3 0
BITMAP
020000
038000
03E000
00F800
003800
000800
3800E0
3800E0
3000C0
3000C0
7001C0
7001C0
7001C0
600180
600180
E00380
E00380
E00380
E00380
E00700
E00F00
F01F00
787F00
3FF700
0FC600
ENDCHAR

STARTCHAR uacute
ENCODING 250
SWIDTH 608 0
DWIDTH 20 0
BBX 19 26 3 0
BITMAP
000800
003800
00F800
03E000
038000
020000
000000
3800E0
3800E0
3000C0
3000C0
7001C0
7001C0
7001C0
600180
600180
E00380
E00380
E00380
E00380
E00700
E00F00
F01F00
787F00
3FF700
0FC600
ENDCHAR

STARTCHAR ucircumflex
ENCODING 251
SWIDTH 608 0
DWIDTH 20 0
BBX 19 25 3 0
BITMAP
01E000
03F000
073800
0E1C00
000000
000000
3800E0
3800E0
3000C0
3000C0
7001C0
7001C0
7001C0
600180
600180
E00380
E00380
E00380
E00380
E00700
E00F00
F01F00
787F00
3FF700
0FC600
ENDCHAR

STARTCHAR udieresis
ENCODING 252
SWIDTH 608 0
DWIDTH 20 0
BBX 19 25 3 0
BITMAP
073800
073800
073800
073800
000000
000000
3800E0
3800E0
3000C0
3000C0
7001C0
7001C0
7001C0
600180
600180
E00380
E00380
E00380
E00380
E00700
E00F00
F01F00
787F00
3FF700
0FC600
ENDCHAR

STARTCHAR yacute
ENCODING 253
SWIDTH 536 0
DWIDTH 18 0
BBX 17 32 4 -6
BITMAP
000800
003800
00F800
03E000
038000
020000
000000
E00380
E00300
E00700
E00E00
600E00
701C00
703800
703800
707000
307000
38E000
39C000
39C000
3B8000
1B0000
1F0000
1E0000
1E0000
1C0000
380000
380000
700000
600000
E00000
C00000
ENDCHAR

STARTCHAR thorn
ENCODING 254
SWIDTH 682 0
DWIDTH 23 0
BBX 22 31 1 -6
BITMAP
070000
070000
060000
060000
060000
0E0000
0E3FC0
0CFFE0
0DF1F0
0FC078
1F003C
1E001C
1C001C
1C001C
18001C
18001C
38001C
38001C
380038
3C0078
3C00F0
7E01E0
77CFC0
77FF00
61FC00
600000
E00000
E00000
E00000
E00000
C00000
ENDCHAR

STARTCHAR ydieresis
ENCODING 255
SWIDTH 536 0
DWIDTH 17 0
BBX 17 31 4 -6
BITMAP
0E7000
0E7000
0E7000
0E7000
000000
000000
E00380
E00300
E00700
E00E00
600E00
701C00
703800
703800
707000
307000
38E000
39C000
39C000
3B8000
1B0000
1F0000
1E0000
1E0000
1C0000
380000
380000
700000
600000
E00000
C00000
ENDCHAR
ENDFONT
